<?xml version="1.0" encoding="utf-8"?>
<!-- Generator: Adobe Illustrator 25.3.1, SVG Export Plug-In . SVG Version: 6.00 Build 0)  -->
<svg version="1.1" id="Layer_1" xmlns="http://www.w3.org/2000/svg" xmlns:xlink="http://www.w3.org/1999/xlink" x="0px" y="0px"
	 viewBox="0 0 1319 1303" style="enable-background:new 0 0 1319 1303;" xml:space="preserve">
<style type="text/css">
	.st0{fill:#FFFFFF;}
</style>
<g>
	<path class="st0" d="M1319,750c-63.2,0-126.3-0.1-189.5-0.1c-50.7,0-101.3,0-152,0c-2,0-3.9,0-6.1,0c-7.5-93-46.4-169.3-119.6-227
		c-56.8-44.8-122.3-66.6-194.5-65.6c-165.8,2.2-297.2,132.1-306.6,292.3c-115.7,0-231.5,0-347.2,0c0-0.1-0.1-0.2-0.1-0.3
		c16.2-2.8,32.4-5.5,48.7-8.3c28.5-4.8,56.9-9.7,85.4-14.5c26.5-4.5,53-9,79.5-13.5c14.7-2.5,29.5-5,44.2-7.4
		c3.2-0.5,4.6-1.8,5.2-5.2c5.5-33.2,15.2-65.2,28.8-96c1.1-2.4,0.7-3.7-1.4-5.4c-40.6-33.5-81.1-67.1-121.6-100.6
		c-16.3-13.5-32.5-27-48.5-41.1c12.8,4.7,25.6,9.5,38.4,14.2c55.7,20.7,111.3,41.3,166.9,62.1c3.9,1.5,5.9,1.2,8.5-2.4
		c24.3-33.5,53.1-62.7,86.7-87.1c4-2.9,3.4-5.4,2-9.1c-25-67.2-49.9-134.4-74.8-201.5c-0.2-0.6-0.4-1.2,0.1-2.3
		c4.3,5.1,8.6,10.1,12.9,15.2c41.5,50.1,83,100.3,124.5,150.4c5.6,6.8,3.3,6.5,12,2.8c30-13,61-22.4,93.3-27.6
		c2.8-0.5,4.2-1.5,4.7-4.6c7.1-42.7,14.5-85.4,21.7-128.1c9.1-54,18.2-108,27.2-162c4-23.9,8-47.8,12.1-71.7
		c0.1-0.6,0.6-1.1,1.3-2.3c3.2,19,6.4,37.1,9.4,55.4c4.8,28.5,9.6,57,14.4,85.4c4.8,28.6,9.7,57.2,14.6,85.9
		c5.6,32.7,11.1,65.4,16.7,98.2c2.2,12.8,4.3,25.5,6.4,38.3c0.4,2.8,0.9,5,4.4,5.5c33.1,5.2,65,14.9,95.5,28.7c4.3,1.9,6.3,1,9-2.3
		c33.2-40.4,66.6-80.6,100-120.9c11.9-14.4,23.8-28.7,35.6-43.1c0.8-1,1.7-2,3.4-2.7c-0.5,1.5-0.9,3.1-1.4,4.6
		c-24.7,66.6-49.5,133.1-74.3,199.6c-1.3,3.4-1.3,5.5,2,7.8c33.9,24.5,62.9,53.9,87.4,87.8c2.4,3.3,4.3,3.5,7.8,2.2
		c67.6-25.2,135.2-50.4,202.8-75.5c0.9-0.3,1.9-0.6,3.2-0.3c-6.6,5.5-13.2,11-19.9,16.5c-34.2,28.4-68.5,56.7-102.7,85.1
		c-15.8,13.1-31.5,26.2-47.4,39.1c-2.3,1.9-2.9,3.4-1.6,6.3c13.8,30.7,23.2,62.8,28.8,96c0.5,3.2,1.7,4,4.6,4.5
		c26.7,4.4,53.3,9.1,80,13.6c28.5,4.8,56.9,9.6,85.4,14.4c28.8,4.9,57.6,9.8,86.4,14.7c2.3,0.4,4.6,0.7,6.9,1
		C1319,749.3,1319,749.7,1319,750z"/>
	<path class="st0" d="M661.1,491.6c150.3-1,276.1,122.4,276.3,275.8c0.2,152.7-125,278.8-280.7,276.6
		c-149.7-2.1-273.7-125.7-272-279.8C386.5,613.9,510.5,490.7,661.1,491.6z M627.2,802c0,57.9,0,115.3,0,172.6c22.9,0,45.2,0,67.9,0
		c0-57.5,0-114.8,0-172.6c57.8,0,115.2,0,172.6,0c0-22.9,0-45.3,0-68.1c-57.7,0-114.9,0-172.7,0c0-57.8,0-115.2,0-172.6
		c-22.9,0-45.3,0-68.2,0c0,57.7,0,115.1,0,173c-57.8,0-115,0-172.4,0c0,22.8,0,45.2,0,67.8C511.9,802,569,802,627.2,802z"/>
	<path class="st0" d="M733.6,1198.8c-9.5-20.3-18.6-40-28-60.1c-6,5-11.8,9.5-17.2,14.4c-1,0.9-1.1,3.6-0.7,5.2
		c5.4,18.6,11,37.2,16.4,55.8c0.5,1.7,0.5,4.1-0.4,5.5c-13.8,23.9-27.8,47.6-41.8,71.4c-0.2,0.3-0.5,0.4-1.1,1.1
		c-3.3-5.6-6.6-11.1-9.8-16.6c-10.7-18.4-21.5-36.7-32.1-55.1c-1.1-1.8-1.3-4.7-0.8-6.8c5.7-19.7,11.6-39.4,17.7-59.1
		c1-3.2,0.7-5-2.4-6.9c-5.6-3.5-10.8-7.6-16.6-11.8c-9.8,21.1-19.4,41.6-29.3,62.9c-14.3-14.8-28.3-29.4-42.6-44.3
		c5-6.4,10-12.8,14.9-19.1c15.3-19.5,30.6-39,45.7-58.7c2-2.6,3.9-2.9,6.8-2.4c27.6,4.4,55.3,5.1,83,1.9c4.9-0.6,9.9-1.4,14.8-1.9
		c1.4-0.1,3.4,0.6,4.2,1.6c20.6,26.1,41.1,52.3,61.8,78.8C762,1169.4,748.1,1183.8,733.6,1198.8z"/>
	<path class="st0" d="M247.7,1044.1c2.3,0,4,0,5.6,0c87,0,173.9,0,260.9,0.1c3.2,0,6.5,1,9.5,2.1c18.1,7.3,36.2,14.7,54.3,22.2
		c-16.6,21.2-33.9,43.4-51.3,65.7c-4.1-3.9-8.1-7.6-11.9-11.4c-4.9-5-9.9-9.9-14.5-15.1c-2.5-2.7-5.1-3.6-8.7-3.6
		c-63.8,0.1-127.6,0-191.4,0.2c-5,0-8.1-1.4-11.1-5.5c-12.9-17.4-26.2-34.4-39.4-51.6C248.9,1046.3,248.5,1045.4,247.7,1044.1z"/>
	<path class="st0" d="M794,1134c-18.1-23.2-34.8-44.6-51.9-66.4c20.9-5.8,40.3-13.2,59-22.6c1.4-0.7,3.2-0.9,4.8-0.9
		c88.5,0,177,0,265.5,0c0.8,0,1.7,0,3.5,0c-2.4,3.3-4.3,6.1-6.4,8.8c-12.2,15.8-24.4,31.6-36.5,47.5c-2.1,2.8-4.4,3.8-7.9,3.8
		c-65.5-0.1-131,0-196.5-0.2c-3.8,0-6.6,1-9.2,3.8C810.6,1116.4,802.5,1124.9,794,1134z"/>
	<path class="st0" d="M972,786.2c86.5,0,173.4,0,261.2,0c-6.2,8.1-11.9,15.5-17.6,23c-8.6,11.2-17.2,22.5-26,33.6c-1.3,1.6-4,3-6,3
		c-49.2,0.2-98.3,0.2-147.5,0.1c-23,0-46-0.4-68.9-0.5c-1.6,0-3.2,0-4.4,0C965.9,825.5,968.9,806.2,972,786.2z"/>
	<path class="st0" d="M359.3,845.1c-1,0.1-2.1,0.2-3.2,0.2c-72.5,0.2-144.9,0.4-217.4,0.5c-1.9,0-4.4-0.8-5.5-2.2
		c-14.5-18.6-28.9-37.4-43.2-56.2c-0.2-0.2-0.2-0.6-0.3-1.2c86.9,0,173.8,0,260.5,0C353.2,805.8,356.2,825.2,359.3,845.1z"/>
	<path class="st0" d="M846.4,1017.8c10-8.8,20-16.9,29.1-25.8c9.9-9.8,18.9-20.5,28.5-30.7c1.5-1.6,4-3.1,6-3.1
		c71.5-0.2,142.9-0.1,214.4-0.1c0.9,0,1.9,0.1,3.7,0.2c-6.1,8-11.7,15.3-17.4,22.6c-8.8,11.5-17.6,23-26.6,34.3
		c-1.1,1.4-3.4,2.7-5.2,2.7c-76.8,0.1-153.6,0.1-230.4,0.1C848.1,1018,847.5,1017.9,846.4,1017.8z"/>
	<path class="st0" d="M194.1,958c4.3,0,7.6,0,11,0c68.5,0,136.9,0,205.4-0.1c3.9,0,6.3,1.2,8.7,4.2c15.5,19.5,33.2,36.8,53,52
		c1.3,1,2.5,2,4.5,3.6c-2.3,0.1-3.7,0.2-5.1,0.2c-75.6,0-151.2,0-226.9,0.1c-3.3,0-5.5-0.7-7.6-3.5c-13.5-17.8-27.1-35.4-40.7-53.1
		C195.7,960.6,195.2,959.7,194.1,958z"/>
	<path class="st0" d="M926.6,931.9c8.8-19.3,17.5-38.5,26.3-57.5c0.5-1.1,2.2-1.8,3.5-2.4c0.7-0.3,1.6-0.1,2.5-0.1
		c72.3,0,144.5,0,216.8,0c1.6,0,3.2,0.1,5.8,0.3c-6.3,8.3-12.1,15.9-17.9,23.5c-8.6,11.2-17.2,22.5-25.9,33.6
		c-1.1,1.3-3.2,2.6-4.8,2.6C1064.2,931.9,995.4,931.9,926.6,931.9C926.3,931.9,926,931.7,926.6,931.9z"/>
	<path class="st0" d="M367.4,872.3c9.6,20,19.1,39.6,28.7,59.6c-1,0-2.6,0-4.2,0c-67,0-133.9,0-200.9,0.1c-3.3,0-5.3-0.9-7.4-3.6
		c-13.5-17.9-27.3-35.7-41-53.5c-0.5-0.6-0.8-1.4-1.6-2.6C217.1,872.3,292.7,872.3,367.4,872.3z"/>
</g>
</svg>
